<mxfile host="app.diagrams.net" agent="Mozilla/5.0 (Windows NT 10.0; Win64; x64) AppleWebKit/537.36 (KHTML, like Gecko) Chrome/130.0.0.0 Safari/537.36 Edg/130.0.0.0" version="24.8.6">
  <diagram id="C5RBs43oDa-KdzZeNtuy" name="Page-1">
    <mxGraphModel dx="934" dy="860" grid="1" gridSize="10" guides="1" tooltips="1" connect="1" arrows="1" fold="1" page="1" pageScale="1" pageWidth="827" pageHeight="1169" math="0" shadow="0">
      <root>
        <mxCell id="WIyWlLk6GJQsqaUBKTNV-0" />
        <mxCell id="WIyWlLk6GJQsqaUBKTNV-1" parent="WIyWlLk6GJQsqaUBKTNV-0" />
        <mxCell id="4jHJnHa8E31KZmrwfcFX-2" value="" style="edgeStyle=orthogonalEdgeStyle;rounded=0;orthogonalLoop=1;jettySize=auto;html=1;" edge="1" parent="WIyWlLk6GJQsqaUBKTNV-1" source="4jHJnHa8E31KZmrwfcFX-0" target="4jHJnHa8E31KZmrwfcFX-1">
          <mxGeometry relative="1" as="geometry" />
        </mxCell>
        <mxCell id="4jHJnHa8E31KZmrwfcFX-0" value="start" style="ellipse;whiteSpace=wrap;html=1;" vertex="1" parent="WIyWlLk6GJQsqaUBKTNV-1">
          <mxGeometry x="320" y="40" width="120" height="80" as="geometry" />
        </mxCell>
        <mxCell id="4jHJnHa8E31KZmrwfcFX-4" value="" style="edgeStyle=orthogonalEdgeStyle;rounded=0;orthogonalLoop=1;jettySize=auto;html=1;" edge="1" parent="WIyWlLk6GJQsqaUBKTNV-1" source="4jHJnHa8E31KZmrwfcFX-1" target="4jHJnHa8E31KZmrwfcFX-3">
          <mxGeometry relative="1" as="geometry" />
        </mxCell>
        <mxCell id="4jHJnHa8E31KZmrwfcFX-1" value="nhập a,b" style="shape=parallelogram;perimeter=parallelogramPerimeter;whiteSpace=wrap;html=1;fixedSize=1;" vertex="1" parent="WIyWlLk6GJQsqaUBKTNV-1">
          <mxGeometry x="320" y="160" width="120" height="60" as="geometry" />
        </mxCell>
        <mxCell id="4jHJnHa8E31KZmrwfcFX-30" value="" style="edgeStyle=orthogonalEdgeStyle;rounded=0;orthogonalLoop=1;jettySize=auto;html=1;" edge="1" parent="WIyWlLk6GJQsqaUBKTNV-1" source="4jHJnHa8E31KZmrwfcFX-3" target="4jHJnHa8E31KZmrwfcFX-29">
          <mxGeometry relative="1" as="geometry">
            <Array as="points">
              <mxPoint x="280" y="330" />
              <mxPoint x="280" y="960" />
            </Array>
          </mxGeometry>
        </mxCell>
        <mxCell id="4jHJnHa8E31KZmrwfcFX-3" value="BSCNN(a, b)&lt;div&gt;=(a*b)/UCLN(a, b)&lt;/div&gt;" style="whiteSpace=wrap;html=1;" vertex="1" parent="WIyWlLk6GJQsqaUBKTNV-1">
          <mxGeometry x="320" y="300" width="120" height="60" as="geometry" />
        </mxCell>
        <mxCell id="4jHJnHa8E31KZmrwfcFX-36" style="edgeStyle=orthogonalEdgeStyle;rounded=0;orthogonalLoop=1;jettySize=auto;html=1;exitX=0.5;exitY=1;exitDx=0;exitDy=0;entryX=0.5;entryY=0;entryDx=0;entryDy=0;" edge="1" parent="WIyWlLk6GJQsqaUBKTNV-1" source="4jHJnHa8E31KZmrwfcFX-5" target="4jHJnHa8E31KZmrwfcFX-7">
          <mxGeometry relative="1" as="geometry">
            <Array as="points">
              <mxPoint x="600" y="390" />
              <mxPoint x="600" y="390" />
            </Array>
          </mxGeometry>
        </mxCell>
        <mxCell id="4jHJnHa8E31KZmrwfcFX-5" value="USCLN(a, b)" style="whiteSpace=wrap;html=1;" vertex="1" parent="WIyWlLk6GJQsqaUBKTNV-1">
          <mxGeometry x="540" y="300" width="120" height="60" as="geometry" />
        </mxCell>
        <mxCell id="4jHJnHa8E31KZmrwfcFX-10" value="đúng" style="edgeStyle=orthogonalEdgeStyle;rounded=0;orthogonalLoop=1;jettySize=auto;html=1;" edge="1" parent="WIyWlLk6GJQsqaUBKTNV-1" source="4jHJnHa8E31KZmrwfcFX-7" target="4jHJnHa8E31KZmrwfcFX-9">
          <mxGeometry x="-0.5001" y="10" relative="1" as="geometry">
            <mxPoint as="offset" />
          </mxGeometry>
        </mxCell>
        <mxCell id="4jHJnHa8E31KZmrwfcFX-13" value="sai" style="edgeStyle=orthogonalEdgeStyle;rounded=0;orthogonalLoop=1;jettySize=auto;html=1;" edge="1" parent="WIyWlLk6GJQsqaUBKTNV-1" source="4jHJnHa8E31KZmrwfcFX-7" target="4jHJnHa8E31KZmrwfcFX-12">
          <mxGeometry x="-0.365" y="-10" relative="1" as="geometry">
            <mxPoint as="offset" />
          </mxGeometry>
        </mxCell>
        <mxCell id="4jHJnHa8E31KZmrwfcFX-7" value="a=0" style="rhombus;whiteSpace=wrap;html=1;" vertex="1" parent="WIyWlLk6GJQsqaUBKTNV-1">
          <mxGeometry x="540" y="450" width="120" height="80" as="geometry" />
        </mxCell>
        <mxCell id="4jHJnHa8E31KZmrwfcFX-39" style="edgeStyle=orthogonalEdgeStyle;rounded=0;orthogonalLoop=1;jettySize=auto;html=1;exitX=0;exitY=0.5;exitDx=0;exitDy=0;" edge="1" parent="WIyWlLk6GJQsqaUBKTNV-1" source="4jHJnHa8E31KZmrwfcFX-9">
          <mxGeometry relative="1" as="geometry">
            <mxPoint x="380" y="360" as="targetPoint" />
          </mxGeometry>
        </mxCell>
        <mxCell id="4jHJnHa8E31KZmrwfcFX-9" value="UCLN=b" style="whiteSpace=wrap;html=1;" vertex="1" parent="WIyWlLk6GJQsqaUBKTNV-1">
          <mxGeometry x="690" y="380" width="120" height="60" as="geometry" />
        </mxCell>
        <mxCell id="4jHJnHa8E31KZmrwfcFX-15" value="đúng" style="edgeStyle=orthogonalEdgeStyle;rounded=0;orthogonalLoop=1;jettySize=auto;html=1;" edge="1" parent="WIyWlLk6GJQsqaUBKTNV-1" source="4jHJnHa8E31KZmrwfcFX-12" target="4jHJnHa8E31KZmrwfcFX-14">
          <mxGeometry x="-0.4288" y="10" relative="1" as="geometry">
            <mxPoint as="offset" />
          </mxGeometry>
        </mxCell>
        <mxCell id="4jHJnHa8E31KZmrwfcFX-23" value="sai" style="edgeStyle=orthogonalEdgeStyle;rounded=0;orthogonalLoop=1;jettySize=auto;html=1;" edge="1" parent="WIyWlLk6GJQsqaUBKTNV-1" source="4jHJnHa8E31KZmrwfcFX-12" target="4jHJnHa8E31KZmrwfcFX-22">
          <mxGeometry x="-0.6129" y="-10" relative="1" as="geometry">
            <Array as="points">
              <mxPoint x="380" y="590" />
            </Array>
            <mxPoint as="offset" />
          </mxGeometry>
        </mxCell>
        <mxCell id="4jHJnHa8E31KZmrwfcFX-12" value="b=0" style="rhombus;whiteSpace=wrap;html=1;" vertex="1" parent="WIyWlLk6GJQsqaUBKTNV-1">
          <mxGeometry x="414" y="550" width="120" height="80" as="geometry" />
        </mxCell>
        <mxCell id="4jHJnHa8E31KZmrwfcFX-17" value="sai" style="edgeStyle=orthogonalEdgeStyle;rounded=0;orthogonalLoop=1;jettySize=auto;html=1;" edge="1" parent="WIyWlLk6GJQsqaUBKTNV-1" source="4jHJnHa8E31KZmrwfcFX-14" target="4jHJnHa8E31KZmrwfcFX-16">
          <mxGeometry x="0.1997" y="-10" relative="1" as="geometry">
            <Array as="points">
              <mxPoint x="560" y="720" />
            </Array>
            <mxPoint as="offset" />
          </mxGeometry>
        </mxCell>
        <mxCell id="4jHJnHa8E31KZmrwfcFX-19" value="đúng" style="edgeStyle=orthogonalEdgeStyle;rounded=0;orthogonalLoop=1;jettySize=auto;html=1;" edge="1" parent="WIyWlLk6GJQsqaUBKTNV-1" source="4jHJnHa8E31KZmrwfcFX-14" target="4jHJnHa8E31KZmrwfcFX-18">
          <mxGeometry x="-0.9231" y="10" relative="1" as="geometry">
            <Array as="points">
              <mxPoint x="730" y="720" />
              <mxPoint x="730" y="920" />
            </Array>
            <mxPoint as="offset" />
          </mxGeometry>
        </mxCell>
        <mxCell id="4jHJnHa8E31KZmrwfcFX-14" value="a&amp;gt;b" style="rhombus;whiteSpace=wrap;html=1;" vertex="1" parent="WIyWlLk6GJQsqaUBKTNV-1">
          <mxGeometry x="580" y="680" width="120" height="80" as="geometry" />
        </mxCell>
        <mxCell id="4jHJnHa8E31KZmrwfcFX-21" style="edgeStyle=orthogonalEdgeStyle;rounded=0;orthogonalLoop=1;jettySize=auto;html=1;exitX=0;exitY=0.5;exitDx=0;exitDy=0;entryX=0.5;entryY=1;entryDx=0;entryDy=0;" edge="1" parent="WIyWlLk6GJQsqaUBKTNV-1" source="4jHJnHa8E31KZmrwfcFX-16" target="4jHJnHa8E31KZmrwfcFX-12">
          <mxGeometry relative="1" as="geometry" />
        </mxCell>
        <mxCell id="4jHJnHa8E31KZmrwfcFX-16" value="b=b-a" style="whiteSpace=wrap;html=1;" vertex="1" parent="WIyWlLk6GJQsqaUBKTNV-1">
          <mxGeometry x="500" y="800" width="120" height="60" as="geometry" />
        </mxCell>
        <mxCell id="4jHJnHa8E31KZmrwfcFX-20" style="edgeStyle=orthogonalEdgeStyle;rounded=0;orthogonalLoop=1;jettySize=auto;html=1;exitX=0;exitY=0.5;exitDx=0;exitDy=0;entryX=0.5;entryY=1;entryDx=0;entryDy=0;" edge="1" parent="WIyWlLk6GJQsqaUBKTNV-1" source="4jHJnHa8E31KZmrwfcFX-18" target="4jHJnHa8E31KZmrwfcFX-12">
          <mxGeometry relative="1" as="geometry" />
        </mxCell>
        <mxCell id="4jHJnHa8E31KZmrwfcFX-18" value="a=a-b" style="whiteSpace=wrap;html=1;" vertex="1" parent="WIyWlLk6GJQsqaUBKTNV-1">
          <mxGeometry x="580" y="890" width="120" height="60" as="geometry" />
        </mxCell>
        <mxCell id="4jHJnHa8E31KZmrwfcFX-38" style="edgeStyle=orthogonalEdgeStyle;rounded=0;orthogonalLoop=1;jettySize=auto;html=1;exitX=0.5;exitY=0;exitDx=0;exitDy=0;entryX=0.5;entryY=1;entryDx=0;entryDy=0;" edge="1" parent="WIyWlLk6GJQsqaUBKTNV-1" source="4jHJnHa8E31KZmrwfcFX-22" target="4jHJnHa8E31KZmrwfcFX-3">
          <mxGeometry relative="1" as="geometry" />
        </mxCell>
        <mxCell id="4jHJnHa8E31KZmrwfcFX-22" value="UCLN=a" style="whiteSpace=wrap;html=1;" vertex="1" parent="WIyWlLk6GJQsqaUBKTNV-1">
          <mxGeometry x="320" y="440" width="120" height="60" as="geometry" />
        </mxCell>
        <mxCell id="4jHJnHa8E31KZmrwfcFX-29" value="end" style="ellipse;whiteSpace=wrap;html=1;" vertex="1" parent="WIyWlLk6GJQsqaUBKTNV-1">
          <mxGeometry x="330" y="920" width="120" height="80" as="geometry" />
        </mxCell>
        <mxCell id="4jHJnHa8E31KZmrwfcFX-37" style="edgeStyle=orthogonalEdgeStyle;rounded=0;orthogonalLoop=1;jettySize=auto;html=1;exitX=1;exitY=0.5;exitDx=0;exitDy=0;entryX=0.917;entryY=0.498;entryDx=0;entryDy=0;entryPerimeter=0;" edge="1" parent="WIyWlLk6GJQsqaUBKTNV-1" source="4jHJnHa8E31KZmrwfcFX-22" target="4jHJnHa8E31KZmrwfcFX-22">
          <mxGeometry relative="1" as="geometry" />
        </mxCell>
      </root>
    </mxGraphModel>
  </diagram>
</mxfile>
